# xmcd
#
# Track frame offsets: 
#        183
#        16085
#        37290
#        58228
#
# Disc length: 1168 seconds
#
# Revision: 8
# Processed by: cddbd v1.5.2PL0 Copyright (c) Steve Scherf et al.
# Submitted via: ExactAudioCopy v0.99pb4
#
DISCID=31048e04
DTITLE=Salt 'N' Pepa - Salt 'N' Pepa - Let's Talk About Sex
DYEAR=1991
DGENRE=Pop/Funk
TTITLE0=Salt 'N' Pepa - Let's Talk About Sex (True Confessions Edit)
TTITLE1=Salt 'N' Pepa - Let's Talk About Sex (Original Recipe Mix)
TTITLE2=Salt 'N' Pepa - Let's Talk About Sex (Super Crispy)
TTITLE3=Salt 'N' Pepa - Do You Want Me (Techno Philly Mix)
EXTD=
EXTT0=
EXTT1=
EXTT2=
EXTT3=
PLAYORDER=
